HIERARCHY
ROOT Hips
{
  OFFSET -331.093 83.8371 -317.828
  CHANNELS 6 Xposition Yposition Zposition Zrotation Xrotation Yrotation
  JOINT LeftUpLeg
  {
    OFFSET 8.64259 1.95398 -2.38835
    CHANNELS 3 Zrotation Xrotation Yrotation
    JOINT LeftLeg
    {
      OFFSET 43.7702 0 0
      CHANNELS 3 Zrotation Xrotation Yrotation
      JOINT LeftFoot
      {
        OFFSET 40.6238 0 0
        CHANNELS 3 Zrotation Xrotation Yrotation
        JOINT LeftToeBase
        {
          OFFSET 12.7242 0 0
          CHANNELS 3 Zrotation Xrotation Yrotation
          End Site
          {
            OFFSET 0 0 0
          }
        }
      }
    }
  }
  JOINT RightUpLeg
  {
    OFFSET -8.2249 1.95398 -2.59336
    CHANNELS 3 Zrotation Xrotation Yrotation
    JOINT RightLeg
    {
      OFFSET 43.5653 0 0
      CHANNELS 3 Zrotation Xrotation Yrotation
      JOINT RightFoot
      {
        OFFSET 40.6238 0 0
        CHANNELS 3 Zrotation Xrotation Yrotation
        JOINT RightToeBase
        {
          OFFSET 12.7242 0 0
          CHANNELS 3 Zrotation Xrotation Yrotation
          End Site
          {
            OFFSET 0 0 0
          }
        }
      }
    }
  }
  JOINT Spine
  {
    OFFSET 0.165834 0.87714 6.61349
    CHANNELS 3 Zrotation Xrotation Yrotation
    JOINT Spine1
    {
      OFFSET 7.38963 1.71661e-005 0
      CHANNELS 3 Zrotation Xrotation Yrotation
      JOINT Spine2
      {
        OFFSET 11.9445 1.14441e-005 0
        CHANNELS 3 Zrotation Xrotation Yrotation
        JOINT Spine3
        {
          OFFSET 14.7254 4.19617e-005 0
          CHANNELS 3 Zrotation Xrotation Yrotation
          JOINT Spine4
          {
            OFFSET 10.9679 0 0
            CHANNELS 3 Zrotation Xrotation Yrotation
            JOINT RightShoulder
            {
              OFFSET 2.46616 -1.6653 3.69651
              CHANNELS 3 Zrotation Xrotation Yrotation
              JOINT RightArm
              {
                OFFSET 13.0012 0 0
                CHANNELS 3 Zrotation Xrotation Yrotation
                JOINT RightForeArm
                {
                  OFFSET 28.7848 1.62311e-005 0
                  CHANNELS 3 Zrotation Xrotation Yrotation
                  JOINT RightHand
                  {
                    OFFSET 26.5688 1.62095e-005 0
                    CHANNELS 3 Zrotation Xrotation Yrotation
                    End Site
                    {
                      OFFSET 0 0 0
                    }
                  }
                }
              }
            }
            JOINT LeftShoulder
            {
              OFFSET 2.38034 -1.29275 -3.7523
              CHANNELS 3 Zrotation Xrotation Yrotation
              JOINT LeftArm
              {
                OFFSET 16.3182 6.07031e-005 0
                CHANNELS 3 Zrotation Xrotation Yrotation
                JOINT LeftForeArm
                {
                  OFFSET 27.0901 0 0
                  CHANNELS 3 Zrotation Xrotation Yrotation
                  JOINT LeftHand
                  {
                    OFFSET 24.5451 1.51738e-005 0
                    CHANNELS 3 Zrotation Xrotation Yrotation
                    End Site
                    {
                      OFFSET 0 0 0
                    }
                  }
                }
              }
            }
            JOINT Neck
            {
              OFFSET 5.0226 -0.0266342 0
              CHANNELS 3 Zrotation Xrotation Yrotation
              JOINT Head
              {
                OFFSET 6.69364 2.86102e-005 0
                CHANNELS 3 Zrotation Xrotation Yrotation
                End Site
                {
                  OFFSET 0 0 0
                }
              }
            }
          }
        }
      }
    }
  }
}
MOTION
Frames:	9
Frame Time:	0.0416667
35.4134 97.4071 63.474 90.7026 -9.91508 87.0452 -169.973 12.7876 99.764 -28.0853 4.91906 -1.25872 55.2669 -3.3753 -1.41711 31.0792 4.52442 10.5408 170.347 13.85 87.6442 -32.8194 11.4993 -1.16959 69.2492 -3.66539 -2.1311 36.0505 -1.1726 -5.68481 -0.173125 7.66479 -90.0589 11.5443 -0.371949 -0.078997 -0.126607 -0.375056 -0.0625566 -22.6621 -0.330997 -0.187121 -2.64944 -0.331018 -0.187138 91.5078 -41.1181 -100.138 24.3078 -2.973 9.41936 -12.7591 -7.15149 -52.0401 -11.5446 -0.590914 0.381366 -94.7483 -47.4488 71.4181 -21.6609 -1.84798 12.2019 8.29218 7.57939 -44.8448 12.1246 0.809124 2.69057 -7.67625 10.5411 0.167405 1.68339 10.8323 11.2034 
34.9924 97.2487 63.6094 90.1946 -3.41493 86.8253 -171.453 14.3327 99.5816 -26.4992 10.9853 -0.753532 54.8049 -3.09586 -0.02532 33.38 6.26529 9.44155 171.282 13.1872 87.0282 -32.8605 7.33096 -2.58564 68.6652 -3.39186 -2.02851 39.7157 -1.22744 -4.77752 -0.118928 7.75594 -90.1063 11.3617 -0.286215 -0.183074 -0.309175 -0.293992 -0.170306 -22.8444 -0.217971 -0.260627 -2.83175 -0.217958 -0.26063 91.6521 -40.7312 -99.9892 25.3924 -3.56806 9.38424 -14.0043 -7.46155 -53.7704 -11.2625 -0.559002 0.0886035 -94.5851 -47.8521 71.7858 -21.5849 -1.14771 11.314 8.52426 7.34232 -46.2215 12.3309 0.850001 2.91012 -6.62533 20.7762 3.47555 -2.52833 20.3461 13.851 
34.2098 97.0695 63.6335 88.8171 2.77198 86.6988 -172.819 17.4062 98.7831 -25.6667 13.2692 -0.574323 54.5086 -3.42059 -0.821377 33.3567 5.46857 6.9868 172.254 13.4172 86.6852 -32.7704 4.51434 -3.88007 68.933 -3.28877 -2.01892 41.4139 -1.31318 -4.70564 -0.0786014 7.76223 -90.0944 11.3493 -0.200396 -0.167785 -0.321655 -0.207601 -0.158812 -22.8568 -0.140716 -0.220262 -2.84414 -0.140718 -0.220256 91.5137 -40.3809 -100.316 26.3887 -4.14095 8.64769 -14.0377 -7.49715 -54.1904 -10.6539 -0.489976 -0.477744 -94.9327 -48.2653 71.3905 -21.7404 -0.686372 10.4233 8.09477 7.21853 -45.4486 12.4976 0.865363 2.93732 -6.32376 25.8321 5.92992 -4.51314 24.9547 14.5615 
33.1545 97.0018 63.4599 87.9267 7.03924 86.9279 -173.687 19.2379 98.0503 -24.1798 13.3678 -0.48195 53.1932 -4.49572 -2.32863 35.4885 7.23137 6.74288 171.587 13.7314 86.6531 -31.5843 6.66499 -3.27044 69.5739 -3.20792 -1.97484 40.7045 -1.03141 -3.65873 0.0586329 7.86197 -90.0601 11.1499 0.0888407 -0.128257 -0.521029 0.0831119 -0.132044 -23.0562 0.123271 -0.0956216 -3.04352 0.123289 -0.0956251 91.2207 -40.0195 -100.916 27.3778 -5.30387 6.75519 -15.0533 -7.99101 -54.8514 -9.89788 -0.439482 -0.862896 -95.6639 -48.5792 70.3993 -22.2261 -1.51393 11.091 7.48993 6.49793 -45.1231 12.1382 0.857722 3.03921 -5.8431 26.6215 6.37058 -4.97399 25.6057 15.134 
32.0804 96.9266 62.828 86.7836 9.57873 87.8877 -174.31 21.0344 97.9548 -23.7603 14.1984 -0.403657 55.4712 -3.37841 -3.06362 32.6521 5.14154 7.85362 170.578 14.2476 86.8832 -29.8907 9.1689 -1.87817 69.6815 -3.21191 -1.9294 39.3808 -0.973259 -3.68537 0.129891 7.93677 -90.0871 11.0005 0.218236 -0.194249 -0.670461 0.209454 -0.203673 -23.2057 0.266492 -0.119687 -3.19307 0.266533 -0.119685 91.4593 -39.52 -100.635 26.8923 -8.12078 3.29229 -17.2268 -9.18881 -57.1247 -10.6001 -0.472593 -0.937981 -95.7213 -48.6868 70.3476 -23.9332 -0.65311 12.4113 7.54179 7.24425 -44.1388 12.5043 0.829287 2.65755 -5.54972 26.0209 5.79426 -3.28847 25.1924 16.3695 
31.1536 96.7073 61.5952 85.2259 13.8739 89.5189 -174.009 23.5441 98.1024 -22.7199 17.1097 -1.1985 56.5238 -2.50142 -1.58444 33.7531 5.46449 5.87909 169.241 15.2886 86.8321 -29.5014 11.7948 -0.117165 69.1582 -3.18946 -1.8666 39.6238 -1.15311 -4.45984 0.038304 7.91956 -90.1424 11.0347 0.0107642 -0.28426 -0.636287 -0.00179011 -0.284465 -23.1712 0.0956755 -0.26789 -3.15858 0.0956763 -0.267894 91.1703 -40.1417 -100.97 24.9818 -10.7442 0.72889 -20.1711 -10.7649 -60.9381 -12.1862 -0.494703 -1.48882 -96.3291 -48.9949 69.5471 -25.6641 0.324927 13.5308 7.27887 8.21693 -42.2467 12.7508 0.801551 2.34267 -4.17674 25.2396 4.72413 -2.64117 24.4903 16.482 
30.9187 96.5909 59.5201 84.1664 19.2738 91.0706 -171.574 26.1942 97.6849 -22.5963 12.5616 -3.19857 58.921 -0.032308 1.28429 38.7023 12.3666 12.5856 168.141 15.0802 86.3466 -29.2066 15.1685 0.944214 68.9327 -3.04648 -1.76933 38.2149 -1.81936 -8.12203 0.0406014 7.91796 -90.0677 11.0381 0.0494508 -0.139393 -0.632895 0.0432951 -0.141445 -23.168 0.0890702 -0.118087 -3.15538 0.0890658 -0.118092 91.3615 -40.0826 -100.656 25.6645 -12.6755 0.034369 -20.8346 -9.47646 -64.403 -13.4082 -0.636854 -0.314711 -95.404 -48.6634 70.811 -27.6609 1.6508 13.2189 7.46024 9.87941 -40.5315 12.5347 0.868194 2.94795 -2.86664 23.7924 2.6852 -1.59862 23.3169 16.7107 
31.4064 96.5878 56.2906 83.4923 25.9619 93.5332 -168.488 30.2854 97.7191 -26.2919 -4.30213 -4.99428 61.7088 1.73241 1.72739 31.8066 5.67807 12.0892 167.405 11.2345 86.4747 -25.174 21.5521 1.5816 66.0464 -2.21678 -1.31691 39.7858 -1.81932 -7.54787 0.102304 7.88375 -90.0289 11.1063 0.190274 -0.0756067 -0.564665 0.186767 -0.0839176 -23.0999 0.204181 -0.0149309 -3.0873 0.204202 -0.0149274 91.3867 -40.1582 -100.593 27.7046 -12.7525 1.64504 -22.1673 -8.75114 -66.8371 -15.6254 -0.742581 -0.104955 -95.1964 -48.5464 71.0831 -29.1996 0.847951 13.5037 8.15201 10.9861 -40.124 11.5451 0.831883 3.17258 -1.82939 21.5874 0.908865 -0.397397 21.4376 16.1104 
32.517 95.7866 51.1013 82.9087 31.7052 96.3501 -166.536 32.6064 96.76 -30.8856 -11.6458 -6.14463 62.2602 2.99714 4.19511 27.4595 0.436742 6.7159 166.687 6.67072 85.8258 -22.3049 25.7946 1.87062 63.6527 -1.3707 -0.826508 42.9141 -2.13813 -7.74113 0.315752 7.76572 -89.98 11.3425 0.637681 -0.0244905 -0.328319 0.635994 -0.0525309 -22.8646 0.615559 0.168297 -2.85198 0.61556 0.168303 91.5788 -39.7244 -100.374 29.489 -13.1826 3.83072 -20.5367 -8.27663 -65.9401 -14.6988 -0.76658 0.444909 -94.5671 -48.3776 71.9703 -30.713 0.52081 14.7049 8.24598 10.9031 -40.5694 11.4946 0.778637 2.77224 -0.872137 19.1756 -1.1965 0.149355 19.3459 14.7197 
